<svg width="24" height="24" viewBox="0 0 24 24" fill="none" xmlns="http://www.w3.org/2000/svg">
<g id="icon/notification">
<path id="Vector" d="M18.75 13.3282V9.82161C18.7484 8.25922 18.1827 6.7478 17.1532 5.55501C16.1237 4.36223 14.6967 3.56504 13.125 3.30465V2.1027C13.125 1.81025 13.0065 1.52977 12.7955 1.32297C12.5845 1.11618 12.2984 1 12 1C11.7016 1 11.4155 1.11618 11.2045 1.32297C10.9935 1.52977 10.875 1.81025 10.875 2.1027V3.30465C9.30331 3.56504 7.87634 4.36223 6.84681 5.55501C5.81728 6.7478 5.25162 8.25922 5.25 9.82161V13.3282C4.59351 13.5557 4.02487 13.9767 3.62206 14.5334C3.21924 15.0901 3.00196 15.7553 3 16.4378V18.6432C3 18.9357 3.11853 19.2162 3.32951 19.423C3.54048 19.6298 3.82663 19.7459 4.125 19.7459H7.6575C7.91657 20.6803 8.48213 21.5052 9.26692 22.0933C10.0517 22.6814 11.0121 23 12 23C12.9879 23 13.9483 22.6814 14.7331 22.0933C15.5179 21.5052 16.0834 20.6803 16.3425 19.7459H19.875C20.1734 19.7459 20.4595 19.6298 20.6705 19.423C20.8815 19.2162 21 18.9357 21 18.6432V16.4378C20.998 15.7553 20.7808 15.0901 20.3779 14.5334C19.9751 13.9767 19.4065 13.5557 18.75 13.3282ZM7.5 9.82161C7.5 8.65179 7.97411 7.52989 8.81802 6.7027C9.66193 5.87551 10.8065 5.41081 12 5.41081C13.1935 5.41081 14.3381 5.87551 15.182 6.7027C16.0259 7.52989 16.5 8.65179 16.5 9.82161V13.1297H7.5V9.82161ZM12 20.8486C11.6073 20.8463 11.2221 20.7433 10.8827 20.5499C10.5432 20.3564 10.2613 20.0792 10.065 19.7459H13.935C13.7387 20.0792 13.4568 20.3564 13.1173 20.5499C12.7779 20.7433 12.3927 20.8463 12 20.8486ZM18.75 17.5405H5.25V16.4378C5.25 16.1454 5.36853 15.8649 5.5795 15.6581C5.79048 15.4513 6.07663 15.3351 6.375 15.3351H17.625C17.9234 15.3351 18.2095 15.4513 18.4205 15.6581C18.6315 15.8649 18.75 16.1454 18.75 16.4378V17.5405Z" fill="#B5B5B7"/>
</g>
</svg>
