<svg width="24" height="24" viewBox="0 0 24 24" fill="none" xmlns="http://www.w3.org/2000/svg">
<rect width="24" height="24" fill="transparent"/>
<path d="M-1730 -2896C-1730 -2897.1 -1729.1 -2898 -1728 -2898H11831C11832.1 -2898 11833 -2897.1 11833 -2896V4489C11833 4490.1 11832.1 4491 11831 4491H-1728C-1729.1 4491 -1730 4490.1 -1730 4489V-2896Z" fill="transparent"/>
<path d="M-1728 -2897H11831V-2899H-1728V-2897ZM11832 -2896V4489H11834V-2896H11832ZM11831 4490H-1728V4492H11831V4490ZM-1729 4489V-2896H-1731V4489H-1729ZM-1728 4490C-1728.55 4490 -1729 4489.55 -1729 4489H-1731C-1731 4490.66 -1729.66 4492 -1728 4492V4490ZM11832 4489C11832 4489.55 11831.6 4490 11831 4490V4492C11832.7 4492 11834 4490.66 11834 4489H11832ZM11831 -2897C11831.6 -2897 11832 -2896.55 11832 -2896H11834C11834 -2897.66 11832.7 -2899 11831 -2899V-2897ZM-1728 -2899C-1729.66 -2899 -1731 -2897.66 -1731 -2896H-1729C-1729 -2896.55 -1728.55 -2897 -1728 -2897V-2899Z" fill="white" fill-opacity="0.1"/>
<g clip-path="url(#clip0_15_442)">
<rect width="1440" height="900" transform="translate(-865 -374)" fill="white"/>
<path d="M18.707 8.28578C18.5193 8.10279 18.2647 8 17.9993 8C17.7339 8 17.4794 8.10279 17.2917 8.28578L12.7016 12.762C12.5113 12.9401 12.2577 13.0396 11.994 13.0396C11.7302 13.0396 11.4766 12.9401 11.2863 12.762L6.69623 8.28578C6.50746 8.10798 6.25463 8.0096 5.9922 8.01182C5.72977 8.01405 5.47873 8.1167 5.29316 8.29767C5.10758 8.47864 5.00232 8.72345 5.00004 8.97937C4.99776 9.23529 5.09864 9.48185 5.28096 9.66594L9.87006 14.1422C10.1489 14.4141 10.4799 14.6299 10.8443 14.7771C11.2086 14.9242 11.5991 15 11.9935 15C12.3878 15 12.7783 14.9242 13.1427 14.7771C13.507 14.6299 13.838 14.4141 14.1169 14.1422L18.707 9.66594C18.8946 9.4829 19 9.23467 19 8.97586C19 8.71704 18.8946 8.46882 18.707 8.28578Z" fill="#1D6BF3"/>
</g>
<defs>
<clipPath id="clip0_15_442">
<rect width="1440" height="900" fill="white" transform="translate(-865 -374)"/>
</clipPath>
</defs>
</svg>