<svg width="24" height="24" viewBox="0 0 24 24" fill="none" xmlns="http://www.w3.org/2000/svg">
<rect width="24" height="24" fill="transparent"/>
<path d="M-3320 -1896C-3320 -1897.1 -3319.1 -1898 -3318 -1898H10241C10242.1 -1898 10243 -1897.1 10243 -1896V5489C10243 5490.1 10242.1 5491 10241 5491H-3318C-3319.1 5491 -3320 5490.1 -3320 5489V-1896Z" fill="transparent"/>
<path d="M-3318 -1897H10241V-1899H-3318V-1897ZM10242 -1896V5489H10244V-1896H10242ZM10241 5490H-3318V5492H10241V5490ZM-3319 5489V-1896H-3321V5489H-3319ZM-3318 5490C-3318.55 5490 -3319 5489.55 -3319 5489H-3321C-3321 5490.66 -3319.66 5492 -3318 5492V5490ZM10242 5489C10242 5489.55 10241.6 5490 10241 5490V5492C10242.7 5492 10244 5490.66 10244 5489H10242ZM10241 -1897C10241.6 -1897 10242 -1896.55 10242 -1896H10244C10244 -1897.66 10242.7 -1899 10241 -1899V-1897ZM-3318 -1899C-3319.66 -1899 -3321 -1897.66 -3321 -1896H-3319C-3319 -1896.55 -3318.55 -1897 -3318 -1897V-1899Z" fill="white" fill-opacity="0.1"/>
<g clip-path="url(#clip0_15_442)">
<rect width="1440" height="900" transform="translate(-865 -474)" fill="white"/>
<path d="M18.707 8.28578C18.5193 8.10279 18.2647 8 17.9993 8C17.7339 8 17.4794 8.10279 17.2917 8.28578L12.7016 12.762C12.5113 12.9401 12.2577 13.0396 11.994 13.0396C11.7302 13.0396 11.4766 12.9401 11.2863 12.762L6.69623 8.28578C6.50746 8.10798 6.25463 8.0096 5.9922 8.01182C5.72977 8.01405 5.47873 8.1167 5.29316 8.29767C5.10758 8.47864 5.00232 8.72345 5.00004 8.97937C4.99776 9.23529 5.09864 9.48185 5.28096 9.66594L9.87006 14.1422C10.1489 14.4141 10.4799 14.6299 10.8443 14.7771C11.2086 14.9242 11.5991 15 11.9935 15C12.3878 15 12.7783 14.9242 13.1427 14.7771C13.507 14.6299 13.838 14.4141 14.1169 14.1422L18.707 9.66594C18.8946 9.4829 19 9.23467 19 8.97586C19 8.71704 18.8946 8.46882 18.707 8.28578Z" fill="#B5B5B7"/>
</g>
<path d="M452.264 -49.3366C439.384 -50.3472 425.114 -47.4152 412.411 -45.2082C394.002 -42.0097 375.499 -40.3921 357.028 -37.6559C288.014 -27.433 220.047 -22.8142 150.465 -29.2338C94.0082 -34.4425 42.0542 -43.5929 -10.3328 -65.9236C-26.5281 -72.8271 -42.94 -79.167 -59.0843 -86.2054C-63.0689 -87.9425 -65.9007 -90.1151 -70.1891 -90.9962C-71.7716 -91.3214 -80.0114 -93.5541 -79.2522 -92.4023C-77.4107 -89.6083 -75.416 -86.3333 -72.0599 -85.222C-65.7327 -83.1268 -73.95 -84.5672 -77.0366 -88.7537C-86.2977 -101.314 -67.3153 -94.5115 -60.1876 -93.0469" stroke="#1A1B22" stroke-width="3" stroke-linecap="round"/>
<defs>
<clipPath id="clip0_15_442">
<rect width="1440" height="900" fill="white" transform="translate(-865 -474)"/>
</clipPath>
</defs>
</svg>
