<svg width="132" height="132" viewBox="0 0 132 132" fill="none" xmlns="http://www.w3.org/2000/svg">
<rect width="132" height="132" fill="transparent"/>
<path d="M-489 -730C-489 -731.105 -488.105 -732 -487 -732H11226C11227.1 -732 11228 -731.105 11228 -730V3608C11228 3609.1 11227.1 3610 11226 3610H-487C-488.104 3610 -489 3609.1 -489 3608V-730Z" fill="#404040"/>
<path d="M-487 -731H11226V-733H-487V-731ZM11227 -730V3608H11229V-730H11227ZM11226 3609H-487V3611H11226V3609ZM-488 3608V-730H-490V3608H-488ZM-487 3609C-487.552 3609 -488 3608.55 -488 3608H-490C-490 3609.66 -488.657 3611 -487 3611V3609ZM11227 3608C11227 3608.55 11226.6 3609 11226 3609V3611C11227.7 3611 11229 3609.66 11229 3608H11227ZM11226 -731C11226.6 -731 11227 -730.552 11227 -730H11229C11229 -731.657 11227.7 -733 11226 -733V-731ZM-487 -733C-488.657 -733 -490 -731.657 -490 -730H-488C-488 -730.552 -487.552 -731 -487 -731V-733Z" fill="white" fill-opacity="0.1"/>
<rect width="1440" height="900" transform="translate(-227 -231)" fill="white"/>
<rect width="1280" height="1347" transform="translate(-62 -182)" fill="white"/>
<rect x="-30" y="-74" width="1056" height="450" rx="10" fill="#F9FAFB"/>
<circle cx="66" cy="66" r="65.5" fill="#DDE0E4" stroke="black"/>
<path d="M32.6867 89.001C49.8642 67.8595 82.1358 67.8595 99.3133 89.001C101.592 91.8061 99.5962 96 95.982 96H36.018C32.4038 96 30.4076 91.8061 32.6867 89.001Z" fill="#797981"/>
<circle cx="66" cy="55.5" r="25.5" fill="#797981"/>
</svg>
