<svg width="24" height="24" viewBox="0 0 24 24" fill="none" xmlns="http://www.w3.org/2000/svg">
<rect width="24" height="24" fill="#1E1E1E"/>
<path d="M-628 -1056C-628 -1057.1 -627.105 -1058 -626 -1058H11087C11088.1 -1058 11089 -1057.1 11089 -1056V3282C11089 3283.1 11088.1 3284 11087 3284H-626C-627.104 3284 -628 3283.1 -628 3282V-1056Z" fill="#404040"/>
<path d="M-626 -1057H11087V-1059H-626V-1057ZM11088 -1056V3282H11090V-1056H11088ZM11087 3283H-626V3285H11087V3283ZM-627 3282V-1056H-629V3282H-627ZM-626 3283C-626.552 3283 -627 3282.55 -627 3282H-629C-629 3283.66 -627.657 3285 -626 3285V3283ZM11088 3282C11088 3282.55 11087.6 3283 11087 3283V3285C11088.7 3285 11090 3283.66 11090 3282H11088ZM11087 -1057C11087.6 -1057 11088 -1056.55 11088 -1056H11090C11090 -1057.66 11088.7 -1059 11087 -1059V-1057ZM-626 -1059C-627.657 -1059 -629 -1057.66 -629 -1056H-627C-627 -1056.55 -626.552 -1057 -626 -1057V-1059Z" fill="white" fill-opacity="0.1"/>
<rect width="1440" height="900" transform="translate(-366 -557)" fill="white"/>
<rect width="1280" height="1347" transform="translate(-201 -508)" fill="white"/>
<rect x="-169" y="-400" width="1056" height="450" rx="10" fill="#F9FAFB"/>
<rect x="-138.5" y="-7.5" width="174" height="39" rx="3.5" fill="white"/>
<rect x="-138.5" y="-7.5" width="174" height="39" rx="3.5" stroke="#87CC9E"/>
<rect width="24" height="24" rx="4" fill="#F9FAFB"/>
<path d="M10.2222 14.6127L7.60954 12C7.48452 11.8751 7.31498 11.8048 7.1382 11.8048C6.96143 11.8048 6.79189 11.8751 6.66687 12C6.54189 12.1251 6.47168 12.2946 6.47168 12.4714C6.47168 12.6481 6.54189 12.8177 6.66687 12.9427L9.27954 15.5554C9.40336 15.6792 9.55037 15.7775 9.71217 15.8445C9.87397 15.9116 10.0474 15.9461 10.2225 15.9461C10.3977 15.9461 10.5711 15.9116 10.7329 15.8445C10.8947 15.7775 11.0417 15.6792 11.1655 15.5554L17.3335 9.38737C17.4585 9.26235 17.5287 9.09281 17.5287 8.91604C17.5287 8.73926 17.4585 8.56972 17.3335 8.4447C17.2085 8.31972 17.039 8.24951 16.8622 8.24951C16.6854 8.24951 16.5159 8.31972 16.3909 8.4447L10.2222 14.6127Z" fill="#797981"/>
</svg>
