<svg width="20" height="20" viewBox="0 0 20 20" fill="none" xmlns="http://www.w3.org/2000/svg">
<g id="book">
<path id="Vector" d="M9.99967 6.66634V16.6663M9.99967 6.66634C10.5651 4.47329 12.7009 3.3535 17.3509 3.33301C17.4252 3.33274 17.4989 3.34692 17.5676 3.37474C17.6363 3.40256 17.6988 3.44347 17.7513 3.49512C17.8039 3.54676 17.8455 3.60811 17.8739 3.67564C17.9022 3.74317 17.9166 3.81553 17.9163 3.88857V13.8886C17.9163 14.0359 17.8568 14.1772 17.7507 14.2814C17.6447 14.3856 17.5008 14.4441 17.3509 14.4441C12.8271 14.4441 11.0794 15.3403 9.99967 16.6663C8.92633 15.3469 7.17229 14.4441 2.64849 14.4441C2.29931 14.4441 2.08301 14.1646 2.08301 13.8215V3.88857C2.08273 3.81553 2.09717 3.74317 2.12549 3.67564C2.1538 3.60811 2.19545 3.54676 2.24801 3.49512C2.30058 3.44347 2.36302 3.40256 2.43176 3.37474C2.50049 3.34692 2.57415 3.33274 2.64849 3.33301C7.29847 3.3535 9.4342 4.47329 9.99967 6.66634Z" stroke="#B5B5B7" stroke-width="1.5" stroke-linecap="round" stroke-linejoin="round"/>
</g>
</svg>
