<svg width="20" height="20" viewBox="0 0 20 20" fill="none" xmlns="http://www.w3.org/2000/svg">
<g id="exit" clip-path="url(#clip0_377_1998)">
<path id="Vector" fill-rule="evenodd" clip-rule="evenodd" d="M4.00033 1.3335C3.6467 1.3335 3.30756 1.47397 3.05752 1.72402C2.80747 1.97407 2.66699 2.31321 2.66699 2.66683V17.3335C2.66699 17.6871 2.80747 18.0263 3.05752 18.2763C3.30756 18.5264 3.6467 18.6668 4.00033 18.6668H14.0003C14.1771 18.6668 14.3467 18.5966 14.4717 18.4716C14.5968 18.3465 14.667 18.177 14.667 18.0002C14.667 17.8234 14.5968 17.6538 14.4717 17.5288C14.3467 17.4037 14.1771 17.3335 14.0003 17.3335H4.00033V2.66683H14.0003C14.1771 2.66683 14.3467 2.59659 14.4717 2.47157C14.5968 2.34654 14.667 2.17697 14.667 2.00016C14.667 1.82335 14.5968 1.65378 14.4717 1.52876C14.3467 1.40373 14.1771 1.3335 14.0003 1.3335H4.00033ZM16.8057 6.52816C16.6805 6.40298 16.5107 6.33265 16.3337 6.33265C16.1566 6.33265 15.9868 6.40298 15.8617 6.52816C15.7365 6.65334 15.6662 6.82313 15.6662 7.00016C15.6662 7.1772 15.7365 7.34698 15.8617 7.47216L17.7243 9.3335H8.66699C8.49018 9.3335 8.32061 9.40373 8.19559 9.52876C8.07056 9.65378 8.00033 9.82335 8.00033 10.0002C8.00033 10.177 8.07056 10.3465 8.19559 10.4716C8.32061 10.5966 8.49018 10.6668 8.66699 10.6668H17.7243L15.8617 12.5282C15.7365 12.6533 15.6662 12.8231 15.6662 13.0002C15.6662 13.1772 15.7365 13.347 15.8617 13.4722C15.9868 13.5973 16.1566 13.6677 16.3337 13.6677C16.5107 13.6677 16.6805 13.5973 16.8057 13.4722L19.8057 10.4722C19.8677 10.4102 19.917 10.3367 19.9506 10.2557C19.9842 10.1747 20.0015 10.0879 20.0015 10.0002C20.0015 9.91247 19.9842 9.82564 19.9506 9.74465C19.917 9.66366 19.8677 9.59009 19.8057 9.52816L16.8057 6.52816Z" fill="#B5B5B7"/>
</g>
<defs>
<clipPath id="clip0_377_1998">
<rect width="20" height="20" fill="white"/>
</clipPath>
</defs>
</svg>
