<svg width="20" height="20" viewBox="0 0 20 20" fill="none" xmlns="http://www.w3.org/2000/svg">
<g id="phone">
<path id="Vector" d="M15.8333 10C15.8333 8.375 15.2672 6.99639 14.135 5.86417C13.0033 4.7325 11.625 4.16667 10 4.16667V2.5C11.0417 2.5 12.0175 2.69778 12.9275 3.09333C13.8369 3.48944 14.6286 4.02417 15.3025 4.6975C15.9758 5.37139 16.5106 6.16306 16.9067 7.0725C17.3022 7.9825 17.5 8.95833 17.5 10H15.8333ZM12.5 10C12.5 9.30556 12.2569 8.71528 11.7708 8.22917C11.2847 7.74306 10.6944 7.5 10 7.5V5.83333C11.1528 5.83333 12.1356 6.23944 12.9483 7.05167C13.7606 7.86444 14.1667 8.84722 14.1667 10H12.5ZM16.625 17.5C14.8333 17.5 13.0869 17.1006 11.3858 16.3017C9.68417 15.5033 8.17722 14.4478 6.865 13.135C5.55222 11.8228 4.49667 10.3158 3.69833 8.61417C2.89944 6.91306 2.5 5.16667 2.5 3.375C2.5 3.125 2.58333 2.91667 2.75 2.75C2.91667 2.58333 3.125 2.5 3.375 2.5H6.75C6.94444 2.5 7.11806 2.5625 7.27083 2.6875C7.42361 2.8125 7.51389 2.97222 7.54167 3.16667L8.08333 6.08333C8.11111 6.27778 8.10778 6.45472 8.07333 6.61417C8.03833 6.77417 7.95833 6.91667 7.83333 7.04167L5.8125 9.08333C6.39583 10.0833 7.12861 11.0208 8.01083 11.8958C8.8925 12.7708 9.86111 13.5278 10.9167 14.1667L12.875 12.2083C13 12.0833 13.1633 11.9894 13.365 11.9267C13.5661 11.8644 13.7639 11.8472 13.9583 11.875L16.8333 12.4583C17.0278 12.5 17.1875 12.5936 17.3125 12.7392C17.4375 12.8853 17.5 13.0556 17.5 13.25V16.625C17.5 16.875 17.4167 17.0833 17.25 17.25C17.0833 17.4167 16.875 17.5 16.625 17.5ZM5.02083 7.5L6.39583 6.125L6.04167 4.16667H4.1875C4.25694 4.73611 4.35417 5.29861 4.47917 5.85417C4.60417 6.40972 4.78472 6.95833 5.02083 7.5ZM12.4792 14.9583C13.0208 15.1944 13.5731 15.3819 14.1358 15.5208C14.6981 15.6597 15.2639 15.75 15.8333 15.7917V13.9583L13.875 13.5625L12.4792 14.9583Z" fill="#B5B5B7"/>
</g>
</svg>
