<svg width="12" height="12" viewBox="0 0 12 12" fill="none" xmlns="http://www.w3.org/2000/svg">
<g clip-path="url(#clip0_699_693)">
<path d="M6.92251 8.63348L5.29151 10.2645C4.81797 10.7254 4.18202 10.9813 3.52123 10.9768C2.86045 10.9724 2.22798 10.708 1.76067 10.2408C1.29335 9.77363 1.02876 9.14123 1.02414 8.48045C1.01953 7.81967 1.27526 7.18365 1.73601 6.70998L3.36701 5.07748C3.46076 4.98366 3.51341 4.85644 3.51336 4.7238C3.51331 4.59117 3.46058 4.46398 3.36676 4.37023C3.27294 4.27647 3.14572 4.22383 3.01308 4.22388C2.88045 4.22392 2.75326 4.27666 2.65951 4.37048L1.02901 6.00298C0.370146 6.66217 0.000131895 7.5561 0.000366322 8.48811C0.00060075 9.42012 0.371065 10.3139 1.03026 10.9727C1.68946 11.6316 2.58339 12.0016 3.51539 12.0014C4.4474 12.0011 5.34115 11.6307 6.00001 10.9715L7.63101 9.34048C7.72209 9.24618 7.77249 9.11988 7.77135 8.98878C7.77021 8.85768 7.71762 8.73227 7.62492 8.63957C7.53222 8.54686 7.40681 8.49428 7.27571 8.49314C7.14461 8.492 7.01831 8.5424 6.92401 8.63348H6.92251Z" fill="#1A1B22"/>
<path d="M10.972 1.03051C10.6466 0.70292 10.2595 0.443152 9.83302 0.26626C9.40654 0.089369 8.9492 -0.00112823 8.48749 1.23204e-05C8.02602 -0.00121354 7.56889 0.0890514 7.14253 0.265588C6.71616 0.442125 6.32902 0.70143 6.00349 1.02851L4.36999 2.66001C4.27617 2.75377 4.22344 2.88095 4.22339 3.01359C4.22334 3.14622 4.27599 3.27344 4.36974 3.36726C4.46349 3.46108 4.59068 3.51382 4.72331 3.51386C4.85595 3.51391 4.98317 3.46127 5.07699 3.36751L6.70949 1.73651C6.94227 1.50234 7.21918 1.31666 7.52421 1.19024C7.82923 1.06382 8.15631 0.999163 8.48649 1.00001C8.98362 1.00018 9.46954 1.14773 9.88283 1.42401C10.2961 1.7003 10.6182 2.09291 10.8084 2.55222C10.9986 3.01153 11.0483 3.51692 10.9513 4.0045C10.8544 4.49208 10.615 4.93995 10.2635 5.29151L8.63249 6.92251C8.53867 7.01633 8.48596 7.14358 8.48596 7.27626C8.48596 7.40894 8.53867 7.53619 8.63249 7.63001C8.72631 7.72383 8.85356 7.77654 8.98624 7.77654C9.11892 7.77654 9.24617 7.72383 9.33999 7.63001L10.971 6.00001C11.629 5.34056 11.9986 4.44706 11.9988 3.51547C11.999 2.58387 11.6297 1.69023 10.972 1.03051Z" fill="#1A1B22"/>
<path d="M7.14654 4.14646L4.14654 7.14646C4.09879 7.19258 4.06069 7.24775 4.03449 7.30876C4.00829 7.36976 3.99449 7.43537 3.99392 7.50176C3.99334 7.56815 4.00599 7.63399 4.03113 7.69544C4.05627 7.75688 4.0934 7.81271 4.14034 7.85966C4.18729 7.9066 4.24312 7.94373 4.30456 7.96887C4.36601 7.99401 4.43185 8.00666 4.49824 8.00608C4.56463 8.00551 4.63024 7.99171 4.69124 7.96551C4.75224 7.93931 4.80742 7.90121 4.85354 7.85346L7.85354 4.85346C7.94462 4.75916 7.99502 4.63286 7.99388 4.50176C7.99274 4.37066 7.94015 4.24525 7.84745 4.15255C7.75475 4.05985 7.62934 4.00726 7.49824 4.00612C7.36714 4.00498 7.24084 4.05538 7.14654 4.14646Z" fill="#1A1B22"/>
</g>
<defs>
<clipPath id="clip0_699_693">
<rect width="12" height="12" fill="white"/>
</clipPath>
</defs>
</svg>
