<svg width="20" height="20" viewBox="0 0 20 20" fill="none" xmlns="http://www.w3.org/2000/svg">
<g id="icons8:student">
<path id="Vector" d="M10.0002 4.8623L9.80457 4.92168L1.99207 7.53918L0.21582 8.1248L1.2502 8.45605V13.9248C0.87707 14.1417 0.625195 14.5373 0.625195 14.9998C0.625195 15.3313 0.756891 15.6493 0.991312 15.8837C1.22573 16.1181 1.54367 16.2498 1.8752 16.2498C2.20672 16.2498 2.52466 16.1181 2.75908 15.8837C2.9935 15.6493 3.1252 15.3313 3.1252 14.9998C3.1252 14.5373 2.87332 14.1417 2.5002 13.9248V8.8873L3.7502 9.29668V12.4998C3.7502 13.0123 4.0627 13.4373 4.43395 13.7311C4.8052 14.0229 5.26645 14.2292 5.8202 14.4142C6.92895 14.7829 8.39019 14.9998 10.0002 14.9998C11.6102 14.9998 13.0714 14.7836 14.1802 14.4136C14.7339 14.2292 15.1952 14.0229 15.5664 13.7304C15.9377 13.4373 16.2502 13.0123 16.2502 12.4998V9.29668L18.0083 8.71043L19.7846 8.1248L18.0077 7.53855L10.1952 4.92168L10.0002 4.8623ZM10.0002 6.17168L15.8596 8.1248L10.0002 10.0779L4.14082 8.1248L10.0002 6.17168ZM5.0002 9.72668L9.80519 11.3279L10.0002 11.3867L10.1958 11.3273L15.0002 9.72605V12.4998C15.0002 12.5061 15.0027 12.5786 14.8046 12.7342C14.6071 12.8904 14.2527 13.0873 13.7889 13.2423C12.8627 13.5504 11.4971 13.7498 10.0002 13.7498C8.50332 13.7498 7.1377 13.5511 6.21082 13.2417C5.74832 13.0873 5.39332 12.8898 5.19582 12.7342C4.99707 12.5779 5.0002 12.5061 5.0002 12.4998V9.72668Z" fill="#B5B5B7"/>
</g>
</svg>
