<svg width="20" height="20" viewBox="0 0 20 20" fill="none" xmlns="http://www.w3.org/2000/svg">
<g id="akar-icons:gear" clip-path="url(#clip0_443_2552)">
<g id="Group">
<path id="Vector" d="M11.667 2.72449C11.667 2.14033 11.1937 1.66699 10.6095 1.66699H9.39199C8.80699 1.66699 8.33366 2.14033 8.33366 2.72449C8.33366 3.20616 8.00366 3.61949 7.55449 3.79616C7.48366 3.82449 7.41283 3.85449 7.34366 3.88449C6.90116 4.07616 6.37533 4.01783 6.03366 3.67699C5.83536 3.47883 5.5665 3.36752 5.28616 3.36752C5.00582 3.36752 4.73696 3.47883 4.53866 3.67699L3.67699 4.53866C3.47883 4.73696 3.36752 5.00582 3.36752 5.28616C3.36752 5.5665 3.47883 5.83536 3.67699 6.03366C4.01866 6.37533 4.07699 6.90033 3.88366 7.34366C3.85328 7.41343 3.82411 7.48372 3.79616 7.55449C3.61949 8.00366 3.20616 8.33366 2.72449 8.33366C2.14033 8.33366 1.66699 8.80699 1.66699 9.39116V10.6095C1.66699 11.1937 2.14033 11.667 2.72449 11.667C3.20616 11.667 3.61949 11.997 3.79616 12.4462C3.82449 12.517 3.85449 12.5878 3.88366 12.657C4.07616 13.0995 4.01783 13.6253 3.67699 13.967C3.47883 14.1653 3.36752 14.4342 3.36752 14.7145C3.36752 14.9948 3.47883 15.2637 3.67699 15.462L4.53866 16.3237C4.73696 16.5218 5.00582 16.6331 5.28616 16.6331C5.5665 16.6331 5.83536 16.5218 6.03366 16.3237C6.37533 15.982 6.90033 15.9237 7.34366 16.1162C7.41283 16.147 7.48366 16.1762 7.55449 16.2045C8.00366 16.3812 8.33366 16.7945 8.33366 17.2762C8.33366 17.8603 8.80699 18.3337 9.39116 18.3337H10.6095C11.1937 18.3337 11.667 17.8603 11.667 17.2762C11.667 16.7945 11.997 16.3812 12.4462 16.2037C12.517 16.1762 12.5878 16.147 12.657 16.117C13.0995 15.9237 13.6253 15.9828 13.9662 16.3237C14.0644 16.4219 14.181 16.4998 14.3093 16.553C14.4376 16.6062 14.5752 16.6335 14.7141 16.6335C14.853 16.6335 14.9905 16.6062 15.1189 16.553C15.2472 16.4998 15.3638 16.4219 15.462 16.3237L16.3237 15.462C16.5218 15.2637 16.6331 14.9948 16.6331 14.7145C16.6331 14.4342 16.5218 14.1653 16.3237 13.967C15.982 13.6253 15.9237 13.1003 16.1162 12.657C16.147 12.5878 16.1762 12.517 16.2045 12.4462C16.3812 11.997 16.7945 11.667 17.2762 11.667C17.8603 11.667 18.3337 11.1937 18.3337 10.6095V9.39199C18.3337 8.80783 17.8603 8.33449 17.2762 8.33449C16.7945 8.33449 16.3812 8.00449 16.2037 7.55533C16.1757 7.48454 16.1466 7.41425 16.1162 7.34449C15.9245 6.90199 15.9828 6.37616 16.3237 6.03449C16.5218 5.83619 16.6331 5.56733 16.6331 5.28699C16.6331 5.00666 16.5218 4.73779 16.3237 4.53949L15.462 3.67783C15.2637 3.47967 14.9948 3.36836 14.7145 3.36836C14.4342 3.36836 14.1653 3.47967 13.967 3.67783C13.6253 4.01949 13.1003 4.07783 12.657 3.88533C12.5872 3.85467 12.5169 3.82522 12.4462 3.79699C11.997 3.61949 11.667 3.20533 11.667 2.72449Z" stroke="#B5B5B7" stroke-width="1.66667"/>
<path id="Vector_2" d="M13.3337 10.0003C13.3337 10.8844 12.9825 11.7322 12.3573 12.3573C11.7322 12.9825 10.8844 13.3337 10.0003 13.3337C9.11627 13.3337 8.26842 12.9825 7.6433 12.3573C7.01818 11.7322 6.66699 10.8844 6.66699 10.0003C6.66699 9.11627 7.01818 8.26842 7.6433 7.6433C8.26842 7.01818 9.11627 6.66699 10.0003 6.66699C10.8844 6.66699 11.7322 7.01818 12.3573 7.6433C12.9825 8.26842 13.3337 9.11627 13.3337 10.0003Z" stroke="#B5B5B7" stroke-width="1.66667"/>
</g>
</g>
<defs>
<clipPath id="clip0_443_2552">
<rect width="20" height="20" fill="white"/>
</clipPath>
</defs>
</svg>
