<?xml version="1.0" standalone="no"?>
<!DOCTYPE svg PUBLIC "-//W3C//DTD SVG 20010904//EN"
 "http://www.w3.org/TR/2001/REC-SVG-20010904/DTD/svg10.dtd">
<svg version="1.0" xmlns="http://www.w3.org/2000/svg"
 width="920.000000pt" height="720.000000pt" viewBox="0 0 920.000000 720.000000"
 preserveAspectRatio="xMidYMid meet">

<g transform="translate(0.000000,720.000000) scale(0.100000,-0.100000)"
fill="#000000" stroke="none">
<path d="M4315 7189 c-1006 -80 -1934 -581 -2557 -1381 -652 -837 -898 -1912
-678 -2960 272 -1293 1252 -2343 2527 -2708 172 -49 397 -94 573 -115 165 -19
532 -27 695 -14 851 67 1648 430 2251 1026 588 580 950 1321 1050 2153 24 200
25 619 1 820 -52 428 -171 828 -362 1205 -178 352 -385 642 -651 910 -583 587
-1291 938 -2114 1046 -176 23 -553 33 -735 18z m675 -354 c605 -76 1139 -298
1629 -677 136 -107 432 -403 539 -539 389 -502 608 -1040 683 -1674 17 -142
17 -548 0 -690 -75 -637 -307 -1199 -697 -1690 -113 -141 -368 -396 -509 -509
-481 -382 -1027 -611 -1650 -692 -163 -21 -571 -24 -730 -5 -635 75 -1172 294
-1674 683 -136 107 -432 403 -539 539 -380 491 -597 1014 -678 1634 -24 180
-24 590 0 770 81 617 296 1140 672 1625 114 148 406 440 554 554 533 412 1134
641 1810 690 110 8 468 -4 590 -19z"/>
<path d="M2680 5567 c-245 -239 -445 -439 -445 -445 0 -5 335 -356 744 -779
409 -424 743 -774 741 -779 -1 -5 -336 -350 -744 -767 -407 -418 -742 -762
-744 -766 -2 -6 879 -869 892 -874 3 -1 150 147 327 328 922 944 1145 1170
1154 1173 6 1 161 -150 345 -335 184 -186 517 -521 739 -745 l404 -407 441
432 c243 238 443 436 445 441 2 5 -326 353 -730 773 -404 421 -734 768 -734
772 0 5 277 291 615 637 338 346 670 685 737 754 l122 125 -446 435 c-245 239
-449 435 -452 435 -5 0 -1243 -1261 -1453 -1480 -7 -7 -271 253 -761 748
l-752 758 -445 -434z"/>
</g>
</svg>
