<svg width="64" height="64" viewBox="0 0 64 64" fill="none" xmlns="http://www.w3.org/2000/svg">
<path fill-rule="evenodd" clip-rule="evenodd" d="M31.9997 5.33301C17.2956 5.33301 5.33301 17.2952 5.33301 31.9997C5.33301 46.7041 17.2956 58.6663 31.9997 58.6663C46.7038 58.6663 58.6663 46.7041 58.6663 31.9997C58.6663 17.2952 46.7038 5.33301 31.9997 5.33301ZM52.5255 19.5553C54.7304 23.1818 55.9999 27.444 55.9999 31.9999C55.9999 36.5558 54.7304 40.8153 52.5255 44.4446C52.1246 45.1042 51.6917 45.7451 51.232 46.3593C50.7696 46.9762 50.2805 47.5691 49.7647 48.1379C48.7331 49.2729 47.5919 50.3117 46.3598 51.2304C46.0525 51.4627 45.7371 51.6843 45.4191 51.9007C44.1416 52.7659 42.7785 53.5083 41.3407 54.1119C40.9826 54.2667 40.6191 54.411 40.2529 54.5445C39.5153 54.8115 38.7643 55.0465 37.9972 55.2442C36.081 55.7382 34.0712 55.9999 31.9999 55.9999C18.7465 55.9999 7.99992 45.2537 7.99992 31.9999C7.99992 18.7461 18.7465 7.99992 31.9999 7.99992C34.0712 7.99992 36.081 8.26163 37.9972 8.75568C38.7643 8.9533 39.5153 9.18563 40.2529 9.45802C40.6191 9.59155 40.9826 9.73309 41.3407 9.88531C42.7785 10.4915 44.1416 11.2366 45.4191 12.0992C45.7371 12.3155 46.0525 12.5371 46.3598 12.7695C47.5919 13.6908 48.7331 14.7243 49.7647 15.8619C50.2805 16.4308 50.7696 17.0263 51.232 17.6405C51.6917 18.2574 52.1246 18.8957 52.5255 19.5553Z" fill="#FF0200"/>
<path d="M40.001 24.001C39.7509 23.751 39.4119 23.6106 39.0583 23.6106C38.7048 23.6106 38.3657 23.751 38.1156 24.001L32.001 30.1156L25.8863 24.001C25.6363 23.751 25.2972 23.6106 24.9436 23.6106C24.5901 23.6106 24.251 23.751 24.001 24.001C23.751 24.251 23.6106 24.5901 23.6106 24.9436C23.6106 25.2972 23.751 25.6363 24.001 25.8863L30.1156 32.001L24.001 38.1156C23.751 38.3657 23.6106 38.7048 23.6106 39.0583C23.6106 39.4119 23.751 39.7509 24.001 40.001C24.251 40.2509 24.5901 40.3914 24.9436 40.3914C25.2972 40.3914 25.6363 40.2509 25.8863 40.001L32.001 33.8863L38.1156 40.001C38.3657 40.2509 38.7048 40.3914 39.0583 40.3914C39.4119 40.3914 39.7509 40.2509 40.001 40.001C40.2509 39.7509 40.3914 39.4119 40.3914 39.0583C40.3914 38.7048 40.2509 38.3657 40.001 38.1156L33.8863 32.001L40.001 25.8863C40.2509 25.6363 40.3914 25.2972 40.3914 24.9436C40.3914 24.5901 40.2509 24.251 40.001 24.001Z" fill="#FF0200"/>
</svg>
