<svg width="116" height="24" viewBox="0 0 116 24" fill="none" xmlns="http://www.w3.org/2000/svg">
<rect width="116" height="24" fill="transparent"/>
<path d="M-4846 -2888C-4846 -2889.1 -4845.1 -2890 -4844 -2890H8715C8716.1 -2890 8717 -2889.1 8717 -2888V4497C8717 4498.1 8716.1 4499 8715 4499H-4844C-4845.1 4499 -4846 4498.1 -4846 4497V-2888Z" fill="transparent"/>
<path d="M-4844 -2889H8715V-2891H-4844V-2889ZM8716 -2888V4497H8718V-2888H8716ZM8715 4498H-4844V4500H8715V4498ZM-4845 4497V-2888H-4847V4497H-4845ZM-4844 4498C-4844.55 4498 -4845 4497.55 -4845 4497H-4847C-4847 4498.66 -4845.66 4500 -4844 4500V4498ZM8716 4497C8716 4497.55 8715.55 4498 8715 4498V4500C8716.66 4500 8718 4498.66 8718 4497H8716ZM8715 -2889C8715.55 -2889 8716 -2888.55 8716 -2888H8718C8718 -2889.66 8716.66 -2891 8715 -2891V-2889ZM-4844 -2891C-4845.66 -2891 -4847 -2889.66 -4847 -2888H-4845C-4845 -2888.55 -4844.55 -2889 -4844 -2889V-2891Z" fill="white" fill-opacity="0.1"/>
<g clip-path="url(#clip0_15_442)">
<rect width="1440" height="900" transform="translate(-773 -366)" fill="white"/>
<path d="M5.226 16.13C4.50667 16.13 3.85667 16.0217 3.276 15.805C2.69533 15.5883 2.197 15.2763 1.781 14.869C1.37367 14.453 1.05733 13.9503 0.832 13.361C0.615333 12.763 0.507 12.0913 0.507 11.346C0.507 10.592 0.611 9.92033 0.819 9.331C1.03567 8.74167 1.34333 8.24333 1.742 7.836C2.14933 7.42 2.64333 7.10367 3.224 6.887C3.80467 6.67033 4.46767 6.562 5.213 6.562C5.85433 6.562 6.40033 6.627 6.851 6.757C7.31033 6.87833 7.67433 7.02133 7.943 7.186V8.59C7.605 8.37333 7.19767 8.20867 6.721 8.096C6.253 7.97467 5.76767 7.914 5.265 7.914C4.21633 7.914 3.43633 8.2 2.925 8.772C2.42233 9.33533 2.171 10.1933 2.171 11.346C2.171 13.634 3.22833 14.778 5.343 14.778C5.837 14.778 6.30067 14.7173 6.734 14.596C7.176 14.4747 7.579 14.284 7.943 14.024V15.415C7.70033 15.597 7.34933 15.7617 6.89 15.909C6.43067 16.0563 5.876 16.13 5.226 16.13ZM15.8469 11.112L13.8579 15.35H12.7529L10.8809 11.073V16H9.5159V9.253H11.5829L13.4289 13.439L15.3789 9.253H17.3549V16H15.8469V11.112ZM21.9751 16.13C21.4984 16.13 21.0564 16.052 20.6491 15.896C20.2417 15.74 19.8864 15.5147 19.5831 15.22C19.2884 14.9167 19.0544 14.5483 18.8811 14.115C18.7164 13.6817 18.6341 13.1833 18.6341 12.62C18.6341 12.0567 18.7164 11.5583 18.8811 11.125C19.0544 10.6917 19.2884 10.3277 19.5831 10.033C19.8864 9.72967 20.2417 9.50433 20.6491 9.357C21.0564 9.201 21.4984 9.123 21.9751 9.123C22.4517 9.123 22.8937 9.201 23.3011 9.357C23.7084 9.50433 24.0637 9.72967 24.3671 10.033C24.6704 10.3277 24.9087 10.6917 25.0821 11.125C25.2554 11.5583 25.3421 12.0567 25.3421 12.62C25.3421 13.1833 25.2554 13.6817 25.0821 14.115C24.9087 14.5483 24.6704 14.9167 24.3671 15.22C24.0637 15.5147 23.7084 15.74 23.3011 15.896C22.8937 16.052 22.4517 16.13 21.9751 16.13ZM21.9751 14.869C22.4951 14.869 22.9241 14.687 23.2621 14.323C23.6087 13.959 23.7821 13.3913 23.7821 12.62C23.7821 11.8573 23.6087 11.294 23.2621 10.93C22.9241 10.5573 22.4951 10.371 21.9751 10.371C21.4637 10.371 21.0347 10.5573 20.6881 10.93C20.3501 11.294 20.1811 11.8573 20.1811 12.62C20.1811 13.3913 20.3501 13.959 20.6881 14.323C21.0347 14.687 21.4637 14.869 21.9751 14.869ZM29.4548 10.475V16H27.9468V10.475H25.9058V9.253H31.5348V10.475H29.4548ZM36.4028 16.13C35.8915 16.13 35.4495 16.0173 35.0768 15.792C34.7128 15.558 34.4182 15.246 34.1928 14.856V18.301H32.6848V9.253H34.0628L34.1668 10.449C34.3922 10.0417 34.6912 9.721 35.0638 9.487C35.4365 9.24433 35.8915 9.123 36.4288 9.123C36.8275 9.123 37.2045 9.19667 37.5598 9.344C37.9238 9.48267 38.2402 9.69933 38.5088 9.994C38.7775 10.28 38.9898 10.644 39.1458 11.086C39.3105 11.5193 39.3928 12.0307 39.3928 12.62C39.3928 13.218 39.3105 13.738 39.1458 14.18C38.9898 14.6133 38.7732 14.9773 38.4958 15.272C38.2272 15.558 37.9108 15.7747 37.5468 15.922C37.1828 16.0607 36.8015 16.13 36.4028 16.13ZM36.0388 14.869C36.5762 14.869 37.0095 14.687 37.3388 14.323C37.6768 13.9503 37.8458 13.3827 37.8458 12.62C37.8458 11.866 37.6768 11.3027 37.3388 10.93C37.0095 10.5573 36.5805 10.371 36.0518 10.371C35.7832 10.371 35.5362 10.4187 35.3108 10.514C35.0855 10.6007 34.8862 10.7393 34.7128 10.93C34.5482 11.1207 34.4182 11.359 34.3228 11.645C34.2275 11.9223 34.1798 12.2473 34.1798 12.62C34.1798 13.0013 34.2275 13.335 34.3228 13.621C34.4182 13.8983 34.5482 14.1323 34.7128 14.323C34.8775 14.505 35.0725 14.6437 35.2978 14.739C35.5318 14.8257 35.7788 14.869 36.0388 14.869ZM46.3122 15.506C46.2169 15.5667 46.0999 15.636 45.9612 15.714C45.8225 15.7833 45.6579 15.8483 45.4672 15.909C45.2765 15.9697 45.0555 16.0217 44.8042 16.065C44.5529 16.1083 44.2669 16.13 43.9462 16.13C42.7069 16.13 41.7795 15.8223 41.1642 15.207C40.5575 14.5917 40.2542 13.7293 40.2542 12.62C40.2542 12.074 40.3365 11.5843 40.5012 11.151C40.6659 10.7177 40.8955 10.3537 41.1902 10.059C41.4849 9.75567 41.8359 9.526 42.2432 9.37C42.6505 9.20533 43.0969 9.123 43.5822 9.123C44.0849 9.123 44.5355 9.20533 44.9342 9.37C45.3415 9.53467 45.6752 9.78167 45.9352 10.111C46.1952 10.4403 46.3729 10.8477 46.4682 11.333C46.5722 11.8183 46.5765 12.386 46.4812 13.036H41.8142C41.8749 13.6513 42.0785 14.115 42.4252 14.427C42.7719 14.7303 43.3135 14.882 44.0502 14.882C44.5875 14.882 45.0339 14.817 45.3892 14.687C45.7532 14.5483 46.0609 14.4053 46.3122 14.258V15.506ZM43.5822 10.319C43.1402 10.319 42.7675 10.4533 42.4642 10.722C42.1609 10.9907 41.9615 11.3893 41.8662 11.918H45.0382C45.0555 11.372 44.9342 10.969 44.6742 10.709C44.4142 10.449 44.0502 10.319 43.5822 10.319ZM50.8083 10.475V16H49.3003V10.475H47.2593V9.253H52.8883V10.475H50.8083ZM59.4724 13.673C59.4724 14.063 59.3987 14.4053 59.2514 14.7C59.1127 14.9947 58.9177 15.2373 58.6664 15.428C58.415 15.6187 58.116 15.7617 57.7694 15.857C57.4227 15.9523 57.0414 16 56.6254 16H54.0254V9.253H55.5334V11.437H56.6644C57.5484 11.437 58.2374 11.619 58.7314 11.983C59.2254 12.347 59.4724 12.9103 59.4724 13.673ZM55.5334 12.633V14.817H56.5084C56.9244 14.817 57.2624 14.7347 57.5224 14.57C57.7824 14.3967 57.9124 14.115 57.9124 13.725C57.9124 13.335 57.7954 13.0577 57.5614 12.893C57.3274 12.7197 56.9894 12.633 56.5474 12.633H55.5334ZM63.5598 9.253H66.3158C68.0232 9.253 68.8768 9.81633 68.8768 10.943C68.8768 11.359 68.7598 11.6883 68.5258 11.931C68.3005 12.165 67.9668 12.3427 67.5248 12.464C68.0708 12.542 68.4782 12.711 68.7468 12.971C69.0155 13.231 69.1498 13.5993 69.1498 14.076C69.1498 14.4053 69.0805 14.6913 68.9418 14.934C68.8032 15.1767 68.6082 15.376 68.3568 15.532C68.1142 15.688 67.8152 15.805 67.4598 15.883C67.1045 15.961 66.7145 16 66.2898 16H63.5598V9.253ZM65.0548 10.41V12.009H66.1598C66.5238 12.009 66.8185 11.944 67.0438 11.814C67.2692 11.6753 67.3818 11.476 67.3818 11.216C67.3818 10.9127 67.2822 10.7047 67.0828 10.592C66.8922 10.4707 66.6105 10.41 66.2378 10.41H65.0548ZM65.0548 13.075V14.843H66.2118C66.6278 14.843 66.9615 14.7823 67.2128 14.661C67.4728 14.5397 67.6028 14.3143 67.6028 13.985C67.6028 13.6557 67.4858 13.4217 67.2518 13.283C67.0265 13.1443 66.6668 13.075 66.1728 13.075H65.0548ZM73.7381 16.13C73.1921 16.13 72.7025 16.052 72.2691 15.896C71.8358 15.7313 71.4675 15.5017 71.1641 15.207C70.8608 14.9037 70.6268 14.5353 70.4621 14.102C70.2975 13.6687 70.2151 13.1747 70.2151 12.62C70.2151 12.074 70.2975 11.5843 70.4621 11.151C70.6268 10.7177 70.8608 10.3537 71.1641 10.059C71.4675 9.75567 71.8401 9.526 72.2821 9.37C72.7241 9.20533 73.2181 9.123 73.7641 9.123C74.2321 9.123 74.6395 9.175 74.9861 9.279C75.3415 9.383 75.6231 9.513 75.8311 9.669V10.917C75.5625 10.7437 75.2678 10.6093 74.9471 10.514C74.6351 10.4187 74.2711 10.371 73.8551 10.371C72.4598 10.371 71.7621 11.1207 71.7621 12.62C71.7621 14.1193 72.4468 14.869 73.8161 14.869C74.2581 14.869 74.6351 14.8213 74.9471 14.726C75.2678 14.622 75.5625 14.492 75.8311 14.336V15.584C75.6058 15.7313 75.3241 15.8613 74.9861 15.974C74.6481 16.078 74.2321 16.13 73.7381 16.13ZM82.862 15.506C82.7667 15.5667 82.6497 15.636 82.511 15.714C82.3723 15.7833 82.2077 15.8483 82.017 15.909C81.8263 15.9697 81.6053 16.0217 81.354 16.065C81.1027 16.1083 80.8167 16.13 80.496 16.13C79.2567 16.13 78.3293 15.8223 77.714 15.207C77.1073 14.5917 76.804 13.7293 76.804 12.62C76.804 12.074 76.8863 11.5843 77.051 11.151C77.2157 10.7177 77.4453 10.3537 77.74 10.059C78.0347 9.75567 78.3857 9.526 78.793 9.37C79.2003 9.20533 79.6467 9.123 80.132 9.123C80.6347 9.123 81.0853 9.20533 81.484 9.37C81.8913 9.53467 82.225 9.78167 82.485 10.111C82.745 10.4403 82.9227 10.8477 83.018 11.333C83.122 11.8183 83.1263 12.386 83.031 13.036H78.364C78.4247 13.6513 78.6283 14.115 78.975 14.427C79.3217 14.7303 79.8633 14.882 80.6 14.882C81.1373 14.882 81.5837 14.817 81.939 14.687C82.303 14.5483 82.6107 14.4053 82.862 14.258V15.506ZM80.132 10.319C79.69 10.319 79.3173 10.4533 79.014 10.722C78.7107 10.9907 78.5113 11.3893 78.416 11.918H81.588C81.6053 11.372 81.484 10.969 81.224 10.709C80.964 10.449 80.6 10.319 80.132 10.319Z" fill="#5A9BFF"/>
<path d="M110.707 8.28578C110.519 8.10279 110.265 8 109.999 8C109.734 8 109.479 8.10279 109.292 8.28578L104.702 12.762C104.511 12.9401 104.258 13.0396 103.994 13.0396C103.73 13.0396 103.477 12.9401 103.286 12.762L98.6962 8.28578C98.5075 8.10798 98.2546 8.0096 97.9922 8.01182C97.7298 8.01405 97.4787 8.1167 97.2932 8.29767C97.1076 8.47864 97.0023 8.72345 97 8.97937C96.9978 9.23529 97.0986 9.48185 97.281 9.66594L101.87 14.1422C102.149 14.4141 102.48 14.6299 102.844 14.7771C103.209 14.9242 103.599 15 103.993 15C104.388 15 104.778 14.9242 105.143 14.7771C105.507 14.6299 105.838 14.4141 106.117 14.1422L110.707 9.66594C110.895 9.4829 111 9.23467 111 8.97586C111 8.71704 110.895 8.46882 110.707 8.28578Z" fill="#5A9BFF"/>
<path d="M605.947 127.078C584.419 127.164 627.09 124.92 605.947 127.078ZM605.947 127.078C557.733 131.998 512.984 136.667 463.489 132.321C339.011 121.392 214.497 102.005 91.103 81.2716C61.016 76.2163 28.728 66.2993 2.08316 52.6505C-4.3897 49.3348 -9.47327 47.3127 -14.954 42.9113C-16.9259 41.3277 -24.1293 34.7611 -26.766 34.318C-34.6849 32.9875 -15.4408 45.8088 -16.4717 51.9441C-17.3168 56.9736 -12.4071 59.4427 -19.2551 50.6727C-29.1136 38.0471 -17.977 29.5572 -3.75553 38.0057" stroke="#1A1B22" stroke-width="3" stroke-linecap="round"/>
</g>
<defs>
<clipPath id="clip0_15_442">
<rect width="1440" height="900" fill="white" transform="translate(-773 -366)"/>
</clipPath>
</defs>
</svg>
