<svg width="24" height="24" viewBox="0 0 24 24" fill="none" xmlns="http://www.w3.org/2000/svg">
<rect width="24" height="24" fill="transparent"/>
<g filter="url(#filter0_d_13_2)">
<rect x="-1122" y="-496" width="2050" height="1604" rx="25" fill="white"/>
<rect x="-102.5" y="-171.5" width="142" height="218" rx="4.5" stroke="#9747FF" stroke-dasharray="10 5"/>
<path d="M5.83333 17H9.16667C9.625 17 10 16.625 10 16.1667C10 15.7083 9.625 15.3333 9.16667 15.3333H5.83333C5.375 15.3333 5 15.7083 5 16.1667C5 16.625 5.375 17 5.83333 17ZM5 7.83333C5 8.29167 5.375 8.66667 5.83333 8.66667H19.1667C19.625 8.66667 20 8.29167 20 7.83333C20 7.375 19.625 7 19.1667 7H5.83333C5.375 7 5 7.375 5 7.83333ZM5.83333 12.8333H14.1667C14.625 12.8333 15 12.4583 15 12C15 11.5417 14.625 11.1667 14.1667 11.1667H5.83333C5.375 11.1667 5 11.5417 5 12C5 12.4583 5.375 12.8333 5.83333 12.8333Z" fill="#B5B5B7"/>
</g>
<defs>
<filter id="filter0_d_13_2" x="-1128" y="-498" width="2062" height="1616" filterUnits="userSpaceOnUse" color-interpolation-filters="sRGB">
<feFlood flood-opacity="0" result="BackgroundImageFix"/>
<feColorMatrix in="SourceAlpha" type="matrix" values="0 0 0 0 0 0 0 0 0 0 0 0 0 0 0 0 0 0 127 0" result="hardAlpha"/>
<feOffset dy="4"/>
<feGaussianBlur stdDeviation="3"/>
<feComposite in2="hardAlpha" operator="out"/>
<feColorMatrix type="matrix" values="0 0 0 0 0.690196 0 0 0 0 0.745098 0 0 0 0 0.772549 0 0 0 0.3 0"/>
<feBlend mode="normal" in2="BackgroundImageFix" result="effect1_dropShadow_13_2"/>
<feBlend mode="normal" in="SourceGraphic" in2="effect1_dropShadow_13_2" result="shape"/>
</filter>
</defs>
</svg>
