<svg width="107" height="24" viewBox="0 0 107 24" fill="none" xmlns="http://www.w3.org/2000/svg">
<rect width="107" height="24" fill="transparent"/>
<path d="M-4719 -2888C-4719 -2889.1 -4718.1 -2890 -4717 -2890H8842C8843.1 -2890 8844 -2889.1 8844 -2888V4497C8844 4498.1 8843.1 4499 8842 4499H-4717C-4718.1 4499 -4719 4498.1 -4719 4497V-2888Z" fill="transparent"/>
<path d="M-4717 -2889H8842V-2891H-4717V-2889ZM8843 -2888V4497H8845V-2888H8843ZM8842 4498H-4717V4500H8842V4498ZM-4718 4497V-2888H-4720V4497H-4718ZM-4717 4498C-4717.55 4498 -4718 4497.55 -4718 4497H-4720C-4720 4498.66 -4718.66 4500 -4717 4500V4498ZM8843 4497C8843 4497.55 8842.55 4498 8842 4498V4500C8843.66 4500 8845 4498.66 8845 4497H8843ZM8842 -2889C8842.55 -2889 8843 -2888.55 8843 -2888H8845C8845 -2889.66 8843.66 -2891 8842 -2891V-2889ZM-4717 -2891C-4718.66 -2891 -4720 -2889.66 -4720 -2888H-4718C-4718 -2888.55 -4717.55 -2889 -4717 -2889V-2891Z" fill="white" fill-opacity="0.1"/>
<g clip-path="url(#clip0_15_442)">
<rect width="1440" height="900" transform="translate(-646 -366)" fill="white"/>
<path d="M5.226 16.13C4.50667 16.13 3.85667 16.0217 3.276 15.805C2.69533 15.5883 2.197 15.2763 1.781 14.869C1.37367 14.453 1.05733 13.9503 0.832 13.361C0.615333 12.763 0.507 12.0913 0.507 11.346C0.507 10.592 0.611 9.92033 0.819 9.331C1.03567 8.74167 1.34333 8.24333 1.742 7.836C2.14933 7.42 2.64333 7.10367 3.224 6.887C3.80467 6.67033 4.46767 6.562 5.213 6.562C5.85433 6.562 6.40033 6.627 6.851 6.757C7.31033 6.87833 7.67433 7.02133 7.943 7.186V8.59C7.605 8.37333 7.19767 8.20867 6.721 8.096C6.253 7.97467 5.76767 7.914 5.265 7.914C4.21633 7.914 3.43633 8.2 2.925 8.772C2.42233 9.33533 2.171 10.1933 2.171 11.346C2.171 13.634 3.22833 14.778 5.343 14.778C5.837 14.778 6.30067 14.7173 6.734 14.596C7.176 14.4747 7.579 14.284 7.943 14.024V15.415C7.70033 15.597 7.34933 15.7617 6.89 15.909C6.43067 16.0563 5.876 16.13 5.226 16.13ZM12.4028 16.13C11.9261 16.13 11.4841 16.052 11.0768 15.896C10.6695 15.74 10.3141 15.5147 10.0108 15.22C9.71615 14.9167 9.48215 14.5483 9.30881 14.115C9.14415 13.6817 9.06181 13.1833 9.06181 12.62C9.06181 12.0567 9.14415 11.5583 9.30881 11.125C9.48215 10.6917 9.71615 10.3277 10.0108 10.033C10.3141 9.72967 10.6695 9.50433 11.0768 9.357C11.4841 9.201 11.9261 9.123 12.4028 9.123C12.8795 9.123 13.3215 9.201 13.7288 9.357C14.1361 9.50433 14.4915 9.72967 14.7948 10.033C15.0981 10.3277 15.3365 10.6917 15.5098 11.125C15.6831 11.5583 15.7698 12.0567 15.7698 12.62C15.7698 13.1833 15.6831 13.6817 15.5098 14.115C15.3365 14.5483 15.0981 14.9167 14.7948 15.22C14.4915 15.5147 14.1361 15.74 13.7288 15.896C13.3215 16.052 12.8795 16.13 12.4028 16.13ZM12.4028 14.869C12.9228 14.869 13.3518 14.687 13.6898 14.323C14.0365 13.959 14.2098 13.3913 14.2098 12.62C14.2098 11.8573 14.0365 11.294 13.6898 10.93C13.3518 10.5573 12.9228 10.371 12.4028 10.371C11.8915 10.371 11.4625 10.5573 11.1158 10.93C10.7778 11.294 10.6088 11.8573 10.6088 12.62C10.6088 13.3913 10.7778 13.959 11.1158 14.323C11.4625 14.687 11.8915 14.869 12.4028 14.869ZM20.7495 16.13C20.2382 16.13 19.7962 16.0173 19.4235 15.792C19.0595 15.558 18.7649 15.246 18.5395 14.856V18.301H17.0315V9.253H18.4095L18.5135 10.449C18.7389 10.0417 19.0379 9.721 19.4105 9.487C19.7832 9.24433 20.2382 9.123 20.7755 9.123C21.1742 9.123 21.5512 9.19667 21.9065 9.344C22.2705 9.48267 22.5869 9.69933 22.8555 9.994C23.1242 10.28 23.3365 10.644 23.4925 11.086C23.6572 11.5193 23.7395 12.0307 23.7395 12.62C23.7395 13.218 23.6572 13.738 23.4925 14.18C23.3365 14.6133 23.1199 14.9773 22.8425 15.272C22.5739 15.558 22.2575 15.7747 21.8935 15.922C21.5295 16.0607 21.1482 16.13 20.7495 16.13ZM20.3855 14.869C20.9229 14.869 21.3562 14.687 21.6855 14.323C22.0235 13.9503 22.1925 13.3827 22.1925 12.62C22.1925 11.866 22.0235 11.3027 21.6855 10.93C21.3562 10.5573 20.9272 10.371 20.3985 10.371C20.1299 10.371 19.8829 10.4187 19.6575 10.514C19.4322 10.6007 19.2329 10.7393 19.0595 10.93C18.8949 11.1207 18.7649 11.359 18.6695 11.645C18.5742 11.9223 18.5265 12.2473 18.5265 12.62C18.5265 13.0013 18.5742 13.335 18.6695 13.621C18.7649 13.8983 18.8949 14.1323 19.0595 14.323C19.2242 14.505 19.4192 14.6437 19.6445 14.739C19.8785 14.8257 20.1255 14.869 20.3855 14.869ZM27.9059 10.475V16H26.3979V10.475H24.3569V9.253H29.9859V10.475H27.9059ZM32.631 13.959L35.751 9.253H37.233V16H35.738V11.32L32.644 16H31.136V9.253H32.631V13.959ZM42.6489 16.13C42.1376 16.13 41.6956 16.0173 41.3229 15.792C40.9589 15.558 40.6643 15.246 40.4389 14.856V18.301H38.9309V9.253H40.3089L40.4129 10.449C40.6383 10.0417 40.9373 9.721 41.3099 9.487C41.6826 9.24433 42.1376 9.123 42.6749 9.123C43.0736 9.123 43.4506 9.19667 43.8059 9.344C44.1699 9.48267 44.4863 9.69933 44.7549 9.994C45.0236 10.28 45.2359 10.644 45.3919 11.086C45.5566 11.5193 45.6389 12.0307 45.6389 12.62C45.6389 13.218 45.5566 13.738 45.3919 14.18C45.2359 14.6133 45.0193 14.9773 44.7419 15.272C44.4733 15.558 44.1569 15.7747 43.7929 15.922C43.4289 16.0607 43.0476 16.13 42.6489 16.13ZM42.2849 14.869C42.8223 14.869 43.2556 14.687 43.5849 14.323C43.9229 13.9503 44.0919 13.3827 44.0919 12.62C44.0919 11.866 43.9229 11.3027 43.5849 10.93C43.2556 10.5573 42.8266 10.371 42.2979 10.371C42.0293 10.371 41.7823 10.4187 41.5569 10.514C41.3316 10.6007 41.1323 10.7393 40.9589 10.93C40.7943 11.1207 40.6643 11.359 40.5689 11.645C40.4736 11.9223 40.4259 12.2473 40.4259 12.62C40.4259 13.0013 40.4736 13.335 40.5689 13.621C40.6643 13.8983 40.7943 14.1323 40.9589 14.323C41.1236 14.505 41.3186 14.6437 41.5439 14.739C41.7779 14.8257 42.0249 14.869 42.2849 14.869ZM49.8413 16.13C49.3646 16.13 48.9226 16.052 48.5153 15.896C48.108 15.74 47.7526 15.5147 47.4493 15.22C47.1546 14.9167 46.9206 14.5483 46.7473 14.115C46.5826 13.6817 46.5003 13.1833 46.5003 12.62C46.5003 12.0567 46.5826 11.5583 46.7473 11.125C46.9206 10.6917 47.1546 10.3277 47.4493 10.033C47.7526 9.72967 48.108 9.50433 48.5153 9.357C48.9226 9.201 49.3646 9.123 49.8413 9.123C50.318 9.123 50.76 9.201 51.1673 9.357C51.5746 9.50433 51.93 9.72967 52.2333 10.033C52.5366 10.3277 52.775 10.6917 52.9483 11.125C53.1216 11.5583 53.2083 12.0567 53.2083 12.62C53.2083 13.1833 53.1216 13.6817 52.9483 14.115C52.775 14.5483 52.5366 14.9167 52.2333 15.22C51.93 15.5147 51.5746 15.74 51.1673 15.896C50.76 16.052 50.318 16.13 49.8413 16.13ZM49.8413 14.869C50.3613 14.869 50.7903 14.687 51.1283 14.323C51.475 13.959 51.6483 13.3913 51.6483 12.62C51.6483 11.8573 51.475 11.294 51.1283 10.93C50.7903 10.5573 50.3613 10.371 49.8413 10.371C49.33 10.371 48.901 10.5573 48.5543 10.93C48.2163 11.294 48.0473 11.8573 48.0473 12.62C48.0473 13.3913 48.2163 13.959 48.5543 14.323C48.901 14.687 49.33 14.869 49.8413 14.869ZM54.47 9.253H57.226C58.9333 9.253 59.787 9.81633 59.787 10.943C59.787 11.359 59.67 11.6883 59.436 11.931C59.2107 12.165 58.877 12.3427 58.435 12.464C58.981 12.542 59.3883 12.711 59.657 12.971C59.9257 13.231 60.06 13.5993 60.06 14.076C60.06 14.4053 59.9907 14.6913 59.852 14.934C59.7133 15.1767 59.5183 15.376 59.267 15.532C59.0243 15.688 58.7253 15.805 58.37 15.883C58.0147 15.961 57.6247 16 57.2 16H54.47V9.253ZM55.965 10.41V12.009H57.07C57.434 12.009 57.7287 11.944 57.954 11.814C58.1793 11.6753 58.292 11.476 58.292 11.216C58.292 10.9127 58.1923 10.7047 57.993 10.592C57.8023 10.4707 57.5207 10.41 57.148 10.41H55.965ZM55.965 13.075V14.843H57.122C57.538 14.843 57.8717 14.7823 58.123 14.661C58.383 14.5397 58.513 14.3143 58.513 13.985C58.513 13.6557 58.396 13.4217 58.162 13.283C57.9367 13.1443 57.577 13.075 57.083 13.075H55.965ZM63.6343 13.257H63.0493V16H61.5413V9.253H63.0493V12.035H63.6863L65.8313 9.253H67.4173L64.8693 12.503L67.5213 16H65.7403L63.6343 13.257ZM72.2838 14.817C72.2144 14.973 72.1191 15.129 71.9978 15.285C71.8851 15.441 71.7421 15.584 71.5688 15.714C71.4041 15.8353 71.2048 15.935 70.9708 16.013C70.7368 16.091 70.4638 16.13 70.1518 16.13C69.8571 16.13 69.5841 16.0867 69.3328 16C69.0814 15.922 68.8604 15.8007 68.6698 15.636C68.4878 15.4713 68.3404 15.2677 68.2278 15.025C68.1238 14.7737 68.0718 14.4877 68.0718 14.167C68.0718 13.4303 68.3448 12.88 68.8908 12.516C69.4368 12.1433 70.2081 11.957 71.2048 11.957H72.2318V11.541C72.2318 11.099 72.1191 10.7957 71.8938 10.631C71.6684 10.4577 71.2958 10.371 70.7758 10.371C70.3338 10.371 69.9178 10.436 69.5278 10.566C69.1464 10.6873 68.8084 10.8303 68.5138 10.995V9.734C68.7824 9.58667 69.1378 9.448 69.5798 9.318C70.0218 9.188 70.5028 9.123 71.0228 9.123C71.8894 9.123 72.5568 9.305 73.0248 9.669C73.5014 10.0243 73.7398 10.5963 73.7398 11.385V14.908C73.7398 14.986 73.7398 15.077 73.7398 15.181C73.7484 15.2763 73.7528 15.376 73.7528 15.48C73.7614 15.584 73.7701 15.6837 73.7788 15.779C73.7874 15.8657 73.7961 15.9393 73.8048 16H72.4138C72.3878 15.8787 72.3618 15.7097 72.3358 15.493C72.3184 15.2763 72.3054 15.0813 72.2968 14.908L72.2838 14.817ZM70.5678 14.96C70.8884 14.96 71.1528 14.895 71.3608 14.765C71.5774 14.6263 71.7508 14.4703 71.8808 14.297C72.0108 14.115 72.1018 13.9373 72.1538 13.764C72.2058 13.5907 72.2318 13.4693 72.2318 13.4V12.945H71.2958C70.6978 12.945 70.2601 13.0403 69.9828 13.231C69.7054 13.413 69.5668 13.673 69.5668 14.011C69.5668 14.3057 69.6491 14.5397 69.8138 14.713C69.9871 14.8777 70.2384 14.96 70.5678 14.96Z" fill="#5A9BFF"/>
<path d="M88.8333 17H92.1667C92.625 17 93 16.625 93 16.1667C93 15.7083 92.625 15.3333 92.1667 15.3333H88.8333C88.375 15.3333 88 15.7083 88 16.1667C88 16.625 88.375 17 88.8333 17ZM88 7.83333C88 8.29167 88.375 8.66667 88.8333 8.66667H102.167C102.625 8.66667 103 8.29167 103 7.83333C103 7.375 102.625 7 102.167 7H88.8333C88.375 7 88 7.375 88 7.83333ZM88.8333 12.8333H97.1667C97.625 12.8333 98 12.4583 98 12C98 11.5417 97.625 11.1667 97.1667 11.1667H88.8333C88.375 11.1667 88 11.5417 88 12C88 12.4583 88.375 12.8333 88.8333 12.8333Z" fill="#5A9BFF"/>
<path d="M732.947 127.078C711.419 127.164 754.09 124.92 732.947 127.078ZM732.947 127.078C684.733 131.998 639.984 136.667 590.489 132.321C466.011 121.392 341.497 102.005 218.103 81.2716C188.016 76.2163 155.728 66.2993 129.083 52.6505C122.61 49.3348 117.527 47.3127 112.046 42.9113C110.074 41.3277 102.871 34.7611 100.234 34.318C92.3151 32.9875 111.559 45.8088 110.528 51.9441C109.683 56.9736 114.593 59.4427 107.745 50.6727C97.8864 38.0471 109.023 29.5572 123.244 38.0057" stroke="#1A1B22" stroke-width="3" stroke-linecap="round"/>
</g>
<defs>
<clipPath id="clip0_15_442">
<rect width="1440" height="900" fill="white" transform="translate(-646 -366)"/>
</clipPath>
</defs>
</svg>
