<svg width="24" height="24" viewBox="0 0 24 24" fill="none" xmlns="http://www.w3.org/2000/svg">
<rect width="24" height="24" fill="transparent"/>
<path d="M-4799 -696C-4799 -697.105 -4798.1 -698 -4797 -698H8762C8763.1 -698 8764 -697.105 8764 -696V6689C8764 6690.1 8763.1 6691 8762 6691H-4797C-4798.1 6691 -4799 6690.1 -4799 6689V-696Z" fill="transparent"/>
<path d="M-4797 -697H8762V-699H-4797V-697ZM8763 -696V6689H8765V-696H8763ZM8762 6690H-4797V6692H8762V6690ZM-4798 6689V-696H-4800V6689H-4798ZM-4797 6690C-4797.55 6690 -4798 6689.55 -4798 6689H-4800C-4800 6690.66 -4798.66 6692 -4797 6692V6690ZM8763 6689C8763 6689.55 8762.55 6690 8762 6690V6692C8763.66 6692 8765 6690.66 8765 6689H8763ZM8762 -697C8762.55 -697 8763 -696.552 8763 -696H8765C8765 -697.657 8763.66 -699 8762 -699V-697ZM-4797 -699C-4798.66 -699 -4800 -697.657 -4800 -696H-4798C-4798 -696.552 -4797.55 -697 -4797 -697V-699Z" fill="white" fill-opacity="0.1"/>
<g clip-path="url(#clip0_15_442)">
<rect width="1440" height="900" transform="translate(-754 -374)" fill="white"/>
<path d="M5.83333 17H9.16667C9.625 17 10 16.625 10 16.1667C10 15.7083 9.625 15.3333 9.16667 15.3333H5.83333C5.375 15.3333 5 15.7083 5 16.1667C5 16.625 5.375 17 5.83333 17ZM5 7.83333C5 8.29167 5.375 8.66667 5.83333 8.66667H19.1667C19.625 8.66667 20 8.29167 20 7.83333C20 7.375 19.625 7 19.1667 7H5.83333C5.375 7 5 7.375 5 7.83333ZM5.83333 12.8333H14.1667C14.625 12.8333 15 12.4583 15 12C15 11.5417 14.625 11.1667 14.1667 11.1667H5.83333C5.375 11.1667 5 11.5417 5 12C5 12.4583 5.375 12.8333 5.83333 12.8333Z" fill="#5A9BFF"/>
</g>
<defs>
<clipPath id="clip0_15_442">
<rect width="1440" height="900" fill="white" transform="translate(-754 -374)"/>
</clipPath>
</defs>
</svg>
