<svg width="20" height="20" viewBox="0 0 20 20" fill="none" xmlns="http://www.w3.org/2000/svg">
<g id="octicon:graph-16">
<path id="Vector" d="M1.875 2.1875V16.875H19.0625C19.3111 16.875 19.5496 16.9738 19.7254 17.1496C19.9012 17.3254 20 17.5639 20 17.8125C20 18.0611 19.9012 18.2996 19.7254 18.4754C19.5496 18.6512 19.3111 18.75 19.0625 18.75H0.9375C0.68886 18.75 0.450403 18.6512 0.274587 18.4754C0.098772 18.2996 0 18.0611 0 17.8125L0 2.1875C0 1.93886 0.098772 1.7004 0.274587 1.52459C0.450403 1.34877 0.68886 1.25 0.9375 1.25C1.18614 1.25 1.4246 1.34877 1.60041 1.52459C1.77623 1.7004 1.875 1.93886 1.875 2.1875ZM19.725 5.35L13.1625 11.9125C12.9867 12.0881 12.7484 12.1867 12.5 12.1867C12.2516 12.1867 12.0133 12.0881 11.8375 11.9125L8.75 8.825L5.35 12.225C5.17217 12.3905 4.93711 12.4806 4.69421 12.4764C4.45132 12.4722 4.2195 12.3741 4.0475 12.2025C3.87595 12.0305 3.77775 11.7987 3.77356 11.5558C3.76936 11.3129 3.85949 11.0778 4.025 10.9L8.0875 6.8375C8.26328 6.66194 8.50156 6.56332 8.75 6.56332C8.99844 6.56332 9.23672 6.66194 9.4125 6.8375L12.5 9.925L18.4 4.025C18.5778 3.85949 18.8129 3.76936 19.0558 3.77356C19.2987 3.77775 19.5305 3.87595 19.7025 4.0475C19.8741 4.2195 19.9722 4.45132 19.9764 4.69421C19.9806 4.93711 19.8905 5.17217 19.725 5.35Z" fill="white"/>
</g>
</svg>
