<svg width="20" height="20" viewBox="0 0 20 20" fill="none" xmlns="http://www.w3.org/2000/svg">
<g id="suitcase">
<path id="Vector" d="M16.875 5H13.75V4.375C13.7479 3.87835 13.5497 3.40263 13.1986 3.05145C12.8474 2.70026 12.3716 2.50206 11.875 2.5H8.125C7.62835 2.50206 7.15263 2.70026 6.80145 3.05145C6.45026 3.40263 6.25206 3.87835 6.25 4.375V5H3.125C2.79348 5 2.47554 5.1317 2.24112 5.36612C2.0067 5.60054 1.875 5.91848 1.875 6.25V16.25C1.875 16.5815 2.0067 16.8995 2.24112 17.1339C2.47554 17.3683 2.79348 17.5 3.125 17.5H16.875C17.2065 17.5 17.5245 17.3683 17.7589 17.1339C17.9933 16.8995 18.125 16.5815 18.125 16.25V6.25C18.125 5.91848 17.9933 5.60054 17.7589 5.36612C17.5245 5.1317 17.2065 5 16.875 5ZM7.5 4.375C7.5 4.20924 7.56585 4.05027 7.68306 3.93306C7.80027 3.81585 7.95924 3.75 8.125 3.75H11.875C12.0408 3.75 12.1997 3.81585 12.3169 3.93306C12.4342 4.05027 12.5 4.20924 12.5 4.375V5H7.5V4.375ZM16.875 6.25V11.875H3.125V6.25H16.875ZM16.875 16.25H3.125V13.125H16.875V16.25Z" fill="#B5B5B7"/>
</g>
</svg>
